<?xml version="1.0" standalone="no"?><!DOCTYPE svg PUBLIC "-//W3C//DTD SVG 1.1//EN" "http://www.w3.org/Graphics/SVG/1.1/DTD/svg11.dtd"><svg t="1598585489381" class="icon" viewBox="0 0 1024 1024" version="1.1" xmlns="http://www.w3.org/2000/svg" p-id="6265" xmlns:xlink="http://www.w3.org/1999/xlink" width="128" height="128"><defs><style type="text/css"></style></defs><path d="M774.8 553.84c40 0 72-37.84 72-84.64s-32-84.72-72-84.72-72 37.84-72 84.72 32.4 84.64 72 84.64zM803.84 614.32c36.16 0 67.28 105.44 67.28 105.44s0 3.44 51.76 3.44c0-121.04-119.04-143.44-119.04-143.44zM518.4 503.2c98.56 0 178.48-90.16 178.48-201.28s-80-201.28-178.48-201.28-178.48 90.08-178.48 201.28S419.84 503.2 518.4 503.2zM496.72 645.52v48.56L393.36 537.76s-261.92 46.88-261.92 385.52H520V563.92s-68.32 22.56-23.28 81.6z" fill="#BDC9D7" p-id="6266"></path><path d="M645.2 552.96L543.52 702v-56.8C588.56 588.8 520 563.84 520 563.84v358.56h388.48c0.24-323.04-263.28-369.44-263.28-369.44zM254.56 553.84c39.52 0 72-37.92 72-84.72s-32-84.72-72-84.72-72 37.92-72 84.72 32.24 84.64 72 84.72zM151.04 718.16S181.04 614.8 216 614.8v-33.84S101.04 602.96 101.04 721.6c50 0 50-3.44 50-3.44z" fill="#BDC9D7" p-id="6267"></path></svg>