<?xml version="1.0" standalone="no"?><!DOCTYPE svg PUBLIC "-//W3C//DTD SVG 1.1//EN" "http://www.w3.org/Graphics/SVG/1.1/DTD/svg11.dtd"><svg t="1598586665455" class="icon" viewBox="0 0 1024 1024" version="1.1" xmlns="http://www.w3.org/2000/svg" p-id="9506" xmlns:xlink="http://www.w3.org/1999/xlink" width="128" height="128"><defs><style type="text/css"></style></defs><path d="M709.6 42.08H178.08A102.88 102.88 0 0 0 75.2 144.96v689.44a102.88 102.88 0 0 0 102.88 102.88h395.68A253.68 253.68 0 0 1 504 762.4a262.88 262.88 0 0 1 21.6-102.88H220.8a25.76 25.76 0 0 1 0-51.44h335.52a257.28 257.28 0 0 1 205.76-102.96 281.44 281.44 0 0 1 51.44 5.12V144.96A102.88 102.88 0 0 0 710.64 42.08zM220.8 710.96H416a25.76 25.76 0 1 1 0 51.44H220.8a25.76 25.76 0 0 1 0-51.44z m194.48-274.8h-75.12v25.2a24 24 0 0 1-24.72 22.64 24 24 0 0 1-26.08-20.96V436.16h-76.8a23.12 23.12 0 0 1-20.08-24 21.6 21.6 0 0 1 20.08-21.12h76.16V340H216a22.16 22.16 0 0 1-20.08-21.6c0-10.32 9.28-25.2 20.08-25.2h73.6v-17.52L224 208a24 24 0 0 1-4.32-33.2c10.32-11.84 29.36-3.6 38.56 5.12l57.12 57.12L384 177.92a25.76 25.76 0 0 1 35.52 0c8 10.32 5.12 20.08-8.72 32.4s-70 66.4-70 66.4v16.48h70.4a24 24 0 0 1 24 22.64 24 24 0 0 1-22.64 24.72h-72V392h68.96a24.72 24.72 0 0 1 25.68 24 19.52 19.52 0 0 1-19.2 20.16z" fill="#BDC9D7" p-id="9507"></path><path d="M772.88 559.12a205.84 205.84 0 1 0 205.84 205.84 205.84 205.84 0 0 0-205.84-205.84z m145.12 229.44l-33.44 6.72a12.88 12.88 0 0 0-8 7.2l-3.6 11.28a11.28 11.28 0 0 0 0 10.8l19.04 28.32a10.8 10.8 0 0 1 0 13.92l-18.56 18.56a11.84 11.84 0 0 1-13.92 0l-29.36-20.08a11.28 11.28 0 0 0-10.8 0l-8.72 3.6a11.28 11.28 0 0 0-7.2 8l-6.72 33.92a10.8 10.8 0 0 1-10.96 9.2h-26.24a10.8 10.8 0 0 1-10.8-8.72l-4.72-34.64a11.28 11.28 0 0 0-7.2-8l-10.8-3.12a11.28 11.28 0 0 0-10.8 0l-28.8 19.04a11.84 11.84 0 0 1-13.92 0l-18-19.04a10.32 10.32 0 0 1 0-13.92l19.04-28.32a10.32 10.32 0 0 0 0-10.8l-3.6-9.28a10.8 10.8 0 0 0-8-7.2l-33.44-6.72a10.8 10.8 0 0 1-8.72-10.8v-25.84a10.8 10.8 0 0 1 8.72-10.8l33.44-6.72a10.8 10.8 0 0 0 8-7.2l3.6-9.28a10.32 10.32 0 0 0 0-10.8l-19.04-28.32a10.32 10.32 0 0 1 0-13.92l18-18.56a11.84 11.84 0 0 1 13.92 0l28.8 19.04a10.32 10.32 0 0 0 10.8 0l8.72-3.6a11.28 11.28 0 0 0 7.2-8l6.72-33.92a10.8 10.8 0 0 1 10.8-8.72h26.24a10.8 10.8 0 0 1 10.8 8.72l6.72 33.92a11.28 11.28 0 0 0 7.2 8l8.72 3.6a11.28 11.28 0 0 0 10.8 0l28.8-19.04a11.84 11.84 0 0 1 13.92 0l18.56 18.56a10.8 10.8 0 0 1 0 13.92l-19.2 28.32a10.32 10.32 0 0 0 0 10.8l3.6 9.28a11.84 11.84 0 0 0 8 7.2l33.44 6.72a11.28 11.28 0 0 1 9.28 10.8v25.76a10.8 10.8 0 0 1-9.28 10.8zM772.88 698.56a66.4 66.4 0 1 0 35.68 10.96 66.4 66.4 0 0 0-35.68-10.96z" fill="#BDC9D7" p-id="9508"></path></svg>