<?xml version="1.0" standalone="no"?><!DOCTYPE svg PUBLIC "-//W3C//DTD SVG 1.1//EN" "http://www.w3.org/Graphics/SVG/1.1/DTD/svg11.dtd"><svg t="1598586251115" class="icon" viewBox="0 0 1024 1024" version="1.1" xmlns="http://www.w3.org/2000/svg" p-id="8103" xmlns:xlink="http://www.w3.org/1999/xlink" width="128" height="128"><defs><style type="text/css"></style></defs><path d="M366.08 200h238.48a28.8 28.8 0 0 0 28.8-28.8v-41.12a28.8 28.8 0 0 0-28.72-28.8H366.08a28.8 28.8 0 0 0-28.8 28.72v41.2a28.8 28.8 0 0 0 28.8 28.8z m484.32-49.36H761.6a29.6 29.6 0 0 0-29.6 29.6v39.44a29.6 29.6 0 0 1-29.6 29.6H268.24a29.6 29.6 0 0 1-29.6-29.6v-39.44a29.6 29.6 0 0 0-29.6-29.6H120a29.6 29.6 0 0 0-29.6 29.6v637.44a72.8 72.8 0 0 0 72.64 73.04h644.16a72.8 72.8 0 0 0 72.8-72.8V180.24a29.6 29.6 0 0 0-29.6-29.6zM757.52 525.6L559.04 677.04a32 32 0 0 1-43.92-5.04L405.36 544 268.88 640.72a32 32 0 0 1-38.72-51.12l1.6-1.12L392 474.56a32 32 0 0 1 42.96 5.28L544 608l174.48-133.6a32 32 0 0 1 38.8 51.2z" fill="#BDC9D7" p-id="8104"></path></svg>