<?xml version="1.0" standalone="no"?><!DOCTYPE svg PUBLIC "-//W3C//DTD SVG 1.1//EN" "http://www.w3.org/Graphics/SVG/1.1/DTD/svg11.dtd"><svg t="1598587352468" class="icon" viewBox="0 0 1024 1024" version="1.1" xmlns="http://www.w3.org/2000/svg" p-id="11329" xmlns:xlink="http://www.w3.org/1999/xlink" width="128" height="128"><defs><style type="text/css"></style></defs><path d="M693.76 64.56H326.72a52.48 52.48 0 0 0-53.44 53.44v752a53.6 53.6 0 0 0 53.44 53.44h367.04a56 56 0 0 0 57.04-53.44v-752a56 56 0 0 0-57.04-53.44zM494.16 120h73.04a7.12 7.12 0 1 1 0 14.24h-73.04a7.12 7.12 0 0 1 0-14.24z m-35.6-3.6a8.88 8.88 0 1 1-8.88 8.88 9.52 9.52 0 0 1 8.88-9.04zM512 875.36a39.2 39.2 0 1 1 39.2-39.2 39.52 39.52 0 0 1-39.2 39.2z m217.36-110.48H294.64V171.44h434.72v593.44z" fill="#BDC9D7" p-id="11330"></path><path d="M629.6 496v-14.48l24.96-24.96a150.56 150.56 0 0 0-23.2-48l-33.84 3.6a47.28 47.28 0 0 0-10.72-8.88v-34a129.28 129.28 0 0 0-49.92-17.84l-21.36 26.72h-14.24l-24.96-24.96a150.56 150.56 0 0 0-48 23.2l3.68 33.84a47.28 47.28 0 0 0-8.88 10.72h-34.08a129.36 129.36 0 0 0-17.84 49.92l26.72 21.36v14.24L371.2 529.6a150.56 150.56 0 0 0 23.2 48l33.84-3.6a47.28 47.28 0 0 0 10.72 8.88v33.84a129.28 129.28 0 0 0 49.92 17.84L510.24 608h14.24l24.96 24.96a150.56 150.56 0 0 0 48-23.2L594 576a47.28 47.28 0 0 0 8.88-10.72h33.84a129.28 129.28 0 0 0 17.84-49.92L629.6 496zM512 565.28a71.28 71.28 0 1 1 71.28-71.28A71.52 71.52 0 0 1 512 565.28z" fill="#BDC9D7" p-id="11331"></path></svg>