<?xml version="1.0" standalone="no"?><!DOCTYPE svg PUBLIC "-//W3C//DTD SVG 1.1//EN" "http://www.w3.org/Graphics/SVG/1.1/DTD/svg11.dtd"><svg t="1598587230188" class="icon" viewBox="0 0 1024 1024" version="1.1" xmlns="http://www.w3.org/2000/svg" p-id="10768" xmlns:xlink="http://www.w3.org/1999/xlink" width="128" height="128"><defs><style type="text/css"></style></defs><path d="M849.12 202.48a40 40 0 0 1 33.84 42.4v407.04c0 25.44-56.48 96-107.44 144-67.76 62.16-226.08 136-232 138.48h-5.52c-8.48-2.8-163.92-76.32-232-138.48-50.96-48-107.44-118.72-107.44-144V244.88a42.88 42.88 0 0 1 36.8-42.4L544 89.44l305.28 113.04zM634.24 572.8l-56.48 3.2v-51.36a118.72 118.72 0 1 0-62.16 0v197.84A28.32 28.32 0 0 0 544 750.8a30.4 30.4 0 0 0 28.32-28.32V634.96h62.16a29.04 29.04 0 0 0 28.24-31.12 30.96 30.96 0 0 0-28.24-31.12z" fill="#BDC9D7" p-id="10769"></path></svg>