<?xml version="1.0" standalone="no"?><!DOCTYPE svg PUBLIC "-//W3C//DTD SVG 1.1//EN" "http://www.w3.org/Graphics/SVG/1.1/DTD/svg11.dtd"><svg t="1598586220406" class="icon" viewBox="0 0 1024 1024" version="1.1" xmlns="http://www.w3.org/2000/svg" p-id="7963" xmlns:xlink="http://www.w3.org/1999/xlink" width="128" height="128"><defs><style type="text/css"></style></defs><path d="M566.56 184V88.72H471.28V184H96v95.2h48v476.16h296l-185.6 142.88 32 37.04 227.2-185.2 227.52 185.2 32-37.04-180.16-148.16h301.6V273.92h48V184z m280.4 518.48h-656V279.2h656zM328.4 607.2V464h142.88c0-68.8-58.16-121.68-126.96-121.68a128.72 128.72 0 0 0-126.96 127.36c5.28 68.8 42.32 137.52 111.04 137.52z m48 48c74.08 0 142.88-74.08 142.88-142.88H376zM752 369.12H614.16v48h142.8v-48zM752 464H614.16v48h142.8v-48z m0 96H614.16v48h142.8v-48z" fill="#BDC9D7" p-id="7964"></path></svg>