<?xml version="1.0" standalone="no"?><!DOCTYPE svg PUBLIC "-//W3C//DTD SVG 1.1//EN" "http://www.w3.org/Graphics/SVG/1.1/DTD/svg11.dtd"><svg t="1598586354993" class="icon" viewBox="0 0 1024 1024" version="1.1" xmlns="http://www.w3.org/2000/svg" p-id="8664" xmlns:xlink="http://www.w3.org/1999/xlink" width="128" height="128"><defs><style type="text/css"></style></defs><path d="M967.28 390.24s-170.16 120-392 275.76c-72 43.92-137.44-3.76-137.44-3.76l-381.44-272a11.76 11.76 0 0 0-11.84 12.16v399.2a85.36 85.36 0 0 0 85.04 85.04h764.72a85.36 85.36 0 0 0 85.04-85.04V402.4a11.76 11.76 0 0 0-12.08-12.16zM449.36 597.76c44.88 28.08 58.88 23.36 59.84 22.4 3.76 0.96 18.72 2.8 59.84-22.4 108.48-67.28 368-238.4 396.4-312 0 0 44.88-135.52-90.72-129.04H144.64c-135.6-6.8-90.72 128.8-90.72 128.8 27.12 73.84 287.04 244.88 395.44 312.24z" fill="#BDC9D7" p-id="8665"></path></svg>