<?xml version="1.0" standalone="no"?><!DOCTYPE svg PUBLIC "-//W3C//DTD SVG 1.1//EN" "http://www.w3.org/Graphics/SVG/1.1/DTD/svg11.dtd"><svg t="1598587123097" class="icon" viewBox="0 0 1024 1024" version="1.1" xmlns="http://www.w3.org/2000/svg" p-id="10628" xmlns:xlink="http://www.w3.org/1999/xlink" width="128" height="128"><defs><style type="text/css"></style></defs><path d="M682 742.88a14.88 14.88 0 0 0-13.92-16h-195.2a14.88 14.88 0 0 0-13.92 16v39.2a23.52 23.52 0 0 1-23.44 23.44H343.2a23.44 23.44 0 0 0 0 46.96h454.8a23.44 23.44 0 0 0 0-46.96H705.6a23.52 23.52 0 0 1-23.44-23.44v-39.2z m202.08-571.36H280.4a70.48 70.48 0 0 0-70.48 70.48v415.52a47.04 47.04 0 0 0 47.04 47.04h627.12a47.04 47.04 0 0 0 47.04-47.04V218.56a47.04 47.04 0 0 0-47.04-47.04z m0 446.72a39.12 39.12 0 0 1-39.2 39.2H272.56a16 16 0 0 1-16-16v-384a39.12 39.12 0 0 1 39.2-39.2h572.16a16 16 0 0 1 16 16v384z m-137.04-6.48h37.76a23.52 23.52 0 0 0 23.2-23.44v-200a23.52 23.52 0 0 0-23.44-23.44h-37.6a23.52 23.52 0 0 0-23.44 23.44v200a23.36 23.36 0 0 0 23.44 23.44z m-136 0h37.76a23.52 23.52 0 0 0 23.44-23.44V312.4a23.52 23.52 0 0 0-23.44-23.44h-37.6a23.52 23.52 0 0 0-23.44 23.44v275.92a23.44 23.44 0 0 0 23.44 23.44z m-254.4 0h37.76a23.52 23.52 0 0 0 23.44-23.44v-48a23.52 23.52 0 0 0-23.44-23.44h-37.6a23.52 23.52 0 0 0-23.44 23.44v48a23.44 23.44 0 0 0 23.44 23.44z m118.72 0h37.76a23.52 23.52 0 0 0 23.44-23.44V464a23.52 23.52 0 0 0-23.44-23.44h-37.6A23.52 23.52 0 0 0 452.08 464v124a23.44 23.44 0 0 0 23.44 23.44z" fill="#BDC9D7" p-id="10629"></path></svg>