<?xml version="1.0" standalone="no"?><!DOCTYPE svg PUBLIC "-//W3C//DTD SVG 1.1//EN" "http://www.w3.org/Graphics/SVG/1.1/DTD/svg11.dtd"><svg t="1598587078328" class="icon" viewBox="0 0 1024 1024" version="1.1" xmlns="http://www.w3.org/2000/svg" p-id="10488" xmlns:xlink="http://www.w3.org/1999/xlink" width="128" height="128"><defs><style type="text/css"></style></defs><path d="M881.12 289.84L734.24 142.56a52.08 52.08 0 0 0-73.68 0L515.2 289.84a52.08 52.08 0 0 0 0 73.68l146.16 146.16a52.08 52.08 0 0 0 73.68 0l146.08-147.28a52.08 52.08 0 0 0 0-72.56zM697.76 472.48L552 326.32l145.76-146.16 146.16 146.16z m-305.28-296h-216c-28.8 0-48 16.88-48 45.68V440a45.92 45.92 0 0 0 48 48h216a45.92 45.92 0 0 0 48-48V224a45.2 45.2 0 0 0-48-47.28z m0 408h-216c-28.8 0-48 24.56-48 53.28v207.12a51.6 51.6 0 0 0 51.76 51.76h206.88c28.8 0 53.28-19.6 53.28-48V632.8c0-28.8-24.56-47.2-53.28-47.2l5.36-1.12z m360 0H584a45.92 45.92 0 0 0-48 48V848c0 28.8 28.8 48 57.52 48h207.12c28.8 0 47.2-19.6 47.2-48V632.8a45.92 45.92 0 0 0-48-48h-47.2z" fill="#BDC9D7" p-id="10489"></path></svg>