<?xml version="1.0" standalone="no"?><!DOCTYPE svg PUBLIC "-//W3C//DTD SVG 1.1//EN" "http://www.w3.org/Graphics/SVG/1.1/DTD/svg11.dtd"><svg t="1598586541157" class="icon" viewBox="0 0 1024 1024" version="1.1" xmlns="http://www.w3.org/2000/svg" p-id="9084" xmlns:xlink="http://www.w3.org/1999/xlink" width="128" height="128"><defs><style type="text/css"></style></defs><path d="M248 846.08a32 32 0 0 0-32-32H120a33.12 33.12 0 0 0-32 32 29.92 29.92 0 0 0 32 32h96a30.64 30.64 0 0 0 32-32zM120 209.84h96a30.8 30.8 0 0 0 32-32 32 32 0 0 0-32-32H120a33.12 33.12 0 0 0-32 32 30 30 0 0 0 32.56 32z" fill="#BDC9D7" p-id="9085"></path><path d="M888 50.72H216.48a51.44 51.44 0 0 0-48 48v16h48a61.04 61.04 0 0 1 64 63.6 61.04 61.04 0 0 1-64 63.6h-48v95.12h48a61.04 61.04 0 0 1 64 63.6 61.04 61.04 0 0 1-64 63.6h-48V560h48a63.6 63.6 0 1 1 0 127.2h-48v95.2h48a63.6 63.6 0 1 1 0 127.2h-48v16a51.44 51.44 0 0 0 48 48H888a51.44 51.44 0 0 0 48-48V98.48a51.44 51.44 0 0 0-48-47.76zM796.56 694.96c-11.2 24-49.52 71.6-88 71.6-41.6 0-144-56-230.16-173.36C398.72 483.44 360 402.32 360 349.76c0-42.96 28.8-62 43.2-73.2l4.8-3.2a101.68 101.68 0 0 1 52.72-16 34.08 34.08 0 0 1 30.4 19.04c3.2 8 35.2 77.92 38.4 85.92a40.56 40.56 0 0 1-11.2 44.56l-3.2 1.6c-8 4.8-22.32 16-24 27.04a23.44 23.44 0 0 0 6.4 19.12C521.92 488 600 588.32 614.64 601.04c11.2 11.2 25.52 12.8 35.2 3.2A96.56 96.56 0 0 0 664 589.92l1.6-1.6a42.08 42.08 0 0 1 20.72-6.4 46.8 46.8 0 0 1 27.12 9.6c24 16 76.64 52.56 76.64 52.56H792c6.24 11.2 16 28.72 4.64 50.96z" fill="#BDC9D7" p-id="9086"></path><path d="M120.56 655.2h96a30.8 30.8 0 0 0 32-32 32 32 0 0 0-32-32h-96a33.12 33.12 0 0 0-32 32 30 30 0 0 0 32 32z m0-222.72h96a30.72 30.72 0 0 0 32-32 32 32 0 0 0-32-32h-96a33.12 33.12 0 0 0-32 32 30 30 0 0 0 32 32z" fill="#BDC9D7" p-id="9087"></path></svg>