<?xml version="1.0" standalone="no"?><!DOCTYPE svg PUBLIC "-//W3C//DTD SVG 1.1//EN" "http://www.w3.org/Graphics/SVG/1.1/DTD/svg11.dtd"><svg t="1598586293346" class="icon" viewBox="0 0 1024 1024" version="1.1" xmlns="http://www.w3.org/2000/svg" p-id="8383" xmlns:xlink="http://www.w3.org/1999/xlink" width="128" height="128"><defs><style type="text/css"></style></defs><path d="M426.24 510.4a90.8 90.8 0 0 0-98.72 82v360h180.8v-360A90.8 90.8 0 0 0 426.24 510.4zM817.12 359.6l155.6-290.48L640 80.88l72 112.64-213.68 148.64-45.6-64A45.28 45.28 0 0 0 392 267.6L130.48 449.6h-0.48A41.68 41.68 0 0 0 120 508.08a42.8 42.8 0 0 0 58.88 10.16l228-158.64 44.48 62.48a42.16 42.16 0 0 0 43.2 16.72 42.32 42.32 0 0 0 22.8-7.52l239.52-166.64zM199.12 564.48a91.68 91.68 0 0 0-105.92 74.88v313.28h180.8V639.36a91.68 91.68 0 0 0-74.88-74.88zM654.48 450.48a90.4 90.4 0 0 0-92.72 88v414.08h180.8V538.56a90.4 90.4 0 0 0-88.08-88.08zM880 377.68a90.56 90.56 0 0 0-84 96.48v478.48h180.8V474.16A90.56 90.56 0 0 0 880 377.68z" fill="#BDC9D7" p-id="8384"></path></svg>