<?xml version="1.0" standalone="no"?><!DOCTYPE svg PUBLIC "-//W3C//DTD SVG 1.1//EN" "http://www.w3.org/Graphics/SVG/1.1/DTD/svg11.dtd"><svg t="1598587265419" class="icon" viewBox="0 0 1024 1024" version="1.1" xmlns="http://www.w3.org/2000/svg" p-id="10908" xmlns:xlink="http://www.w3.org/1999/xlink" width="128" height="128"><defs><style type="text/css"></style></defs><path d="M868.88 561.2L784 709.12a92.32 92.32 0 0 1-29.36 31.28l-68.64 46.24h119.2a21.12 21.12 0 0 1 0 42.24H256a21.12 21.12 0 1 1 0-42.24h296a54.32 54.32 0 0 1-1.68-16l8.48-142.16a92.56 92.56 0 0 1 11.84-40l126.8-224.8 12.08-21.12 12.08-21.12h-64a21.12 21.12 0 0 1-21.12-21.12V149.2l39.28 32.72 85.6 71.44 9.52-16 6.16-10.8 4.64-8-148.16-129.12H210.88a61.28 61.28 0 0 0-60.4 61.28v722.56a61.28 61.28 0 0 0 61.04 61.28h638.48a61.28 61.28 0 0 0 61.04-61.28V486.64l-21.12 37.36z m-359.2 56.4H256a21.12 21.12 0 1 1 0-42.24h253.68a21.12 21.12 0 1 1 0 42.24z m0-169.04H256a21.12 21.12 0 1 1 0-42.24h253.68a21.12 21.12 0 0 1 0 42.24z m0-169.04H256a21.12 21.12 0 0 1 0-42.24h253.68a21.12 21.12 0 0 1 0 42.24z" fill="#BDC9D7" p-id="10909"></path><path d="M980.64 218.08l-88-50.08a29.68 29.68 0 0 0-40 11.2l-37.84 66.96-11.04 17.84-9.12 16-1.44 2.72-5.52 9.68-16.48 29.44-12 21.12-12.08 21.12L608 609.6a49.68 49.68 0 0 0-6.32 21.12l-8 142.64a12.48 12.48 0 0 0 11.6 13.28h4.08a12.64 12.64 0 0 0 3.6-1.68l119.6-79.2a49.68 49.68 0 0 0 16-16.88l120-213.2 21.12-37.36 21.12-37.36L992 258.48a29.6 29.6 0 0 0-11.12-40z m-112 148.96L702.96 659.92l-51.36 34 3.36-58.72 153.84-271.04 12.08-21.12 12.08-21.12 1.28-2.08h1.44l2.08 1.28 18.4 10.32 12.88 7.36 11.84 6.8z m38.24-67.6l-46.72-26.16 26.4-46.72 46.72 26.4z" fill="#BDC9D7" p-id="10910"></path></svg>