<?xml version="1.0" standalone="no"?><!DOCTYPE svg PUBLIC "-//W3C//DTD SVG 1.1//EN" "http://www.w3.org/Graphics/SVG/1.1/DTD/svg11.dtd"><svg t="1598586584827" class="icon" viewBox="0 0 1024 1024" version="1.1" xmlns="http://www.w3.org/2000/svg" p-id="9226" xmlns:xlink="http://www.w3.org/1999/xlink" width="128" height="128"><defs><style type="text/css"></style></defs><path d="M997.68 136a29.2 29.2 0 0 0-29.68-28.72H56A29.2 29.2 0 0 0 26.32 136 29.2 29.2 0 0 0 56 164.72h57.04V648c0 66.24 48 112.64 114 112.64h170.96l-80 99.36a32 32 0 0 0-10.4 23.52 33.76 33.76 0 0 0 34.56 32.8 35.04 35.04 0 0 0 29.12-15.12l113.36-140.32h57.04l113.36 140.56a35.28 35.28 0 0 0 57.6 0.8 32 32 0 0 0 5.84-18.32 32 32 0 0 0-5.84-18.4L712 864l-1.2-1.44-82.48-101.6h170.96c66.16 0 114-46.4 114-112.64V164.72H968a29.2 29.2 0 0 0 29.6-28.72z m-504 505.76H247.52c-11.36 0-20.48-13.28-20.48-28.72S236.08 584 247.52 584h246.24c11.36 0 20.48 11.04 20.48 28.72 0 15.76-9.12 29.04-20.48 29.04z m0-114.88H247.52c-11.36 0-20.48-13.28-20.48-28.72s9.12-28.72 20.48-28.72h246.24c11.36 0 20.48 13.28 20.48 28.72s-9.12 28.72-20.48 28.72z m303.2-114.88a57.44 57.44 0 0 1-56.96 57.44H626a57.44 57.44 0 0 1-56.96-57.44V299.36a57.44 57.44 0 0 1 56.96-57.44H740a57.44 57.44 0 0 1 56.96 57.44z" fill="#BDC9D7" p-id="9227"></path></svg>