<?xml version="1.0" standalone="no"?><!DOCTYPE svg PUBLIC "-//W3C//DTD SVG 1.1//EN" "http://www.w3.org/Graphics/SVG/1.1/DTD/svg11.dtd"><svg t="1598586059999" class="icon" viewBox="0 0 1024 1024" version="1.1" xmlns="http://www.w3.org/2000/svg" p-id="7683" xmlns:xlink="http://www.w3.org/1999/xlink" width="128" height="128"><defs><style type="text/css"></style></defs><path d="M680.72 555.2a504.64 504.64 0 0 1 200 159.28 336.72 336.72 0 0 1 34.96 60.64 134 134 0 0 1-66.96 178.24 136.8 136.8 0 0 1-56.72 12.16H157.76a136.48 136.48 0 0 1-137.12-136 134.88 134.88 0 0 1 18-67.12 504.64 504.64 0 0 1 231.36-207.2l128.64 45.84a226.8 226.8 0 0 0 151.2 0l130.8-45.84zM475.36 58.48a226.8 226.8 0 1 1-228.88 226.72A227.84 227.84 0 0 1 475.36 58.48z m490.16 377.92a37.76 37.76 0 0 1 0 75.6h-151.2a37.76 37.76 0 0 1 0-75.6h151.2z m0-151.2a37.76 37.76 0 0 1 0 75.6h-151.2a37.76 37.76 0 0 1 0-75.6h151.2z m0-151.2a37.76 37.76 0 0 1 0 75.6h-151.2a37.76 37.76 0 0 1 0-75.6h151.2z" fill="#BDC9D7" p-id="7684"></path></svg>