<?xml version="1.0" standalone="no"?><!DOCTYPE svg PUBLIC "-//W3C//DTD SVG 1.1//EN" "http://www.w3.org/Graphics/SVG/1.1/DTD/svg11.dtd"><svg t="1598586858486" class="icon" viewBox="0 0 1024 1024" version="1.1" xmlns="http://www.w3.org/2000/svg" p-id="9788" xmlns:xlink="http://www.w3.org/1999/xlink" width="128" height="128"><defs><style type="text/css"></style></defs><path d="M852.48 946.32H582v-279.2h333.84v216a63.52 63.52 0 0 1-63.36 63.2zM582 340.56c-11.52-3.12-30.72-8-38.88-16-0.56-0.56-1.04-1.2-1.6-1.76s-0.96 1.2-1.6 1.76a59.68 59.68 0 0 1-27.2 16v257.36H161.44V376a63.52 63.52 0 0 1 63.36-63.2h147.12a235.92 235.92 0 0 1-44.96-32c-58.8-54.8-69.44-133.84-24-176.56a105.92 105.92 0 0 1 73.28-26.48 174.72 174.72 0 0 1 116.16 48.56 232 232 0 0 1 49.2 67.28 232 232 0 0 1 48.96-67.44 174.8 174.8 0 0 1 116.16-48.48A106 106 0 0 1 780 104c45.76 42.72 35.12 121.68-24 176.56a235.52 235.52 0 0 1-45.04 32h141.2a63.52 63.52 0 0 1 63.68 63.44v221.92H582zM448.56 173.52a110.64 110.64 0 0 0-72-31.2 44.16 44.16 0 0 0-29.2 9.2 25.68 25.68 0 0 0-8 20.88c0 15.28 8 39.28 31.52 60.96C399.36 259.84 446.32 280 480 280a33.84 33.84 0 0 0 16-2.64c5.76-11.2-8-66.96-47.44-103.84z m139.36 104.64a61.36 61.36 0 0 0 15.12 1.76c33.76 0 80.72-20 109.12-46.48 23.36-21.76 31.84-45.76 31.84-61.04a25.76 25.76 0 0 0-8-20.88 44.16 44.16 0 0 0-29.2-9.2 110.56 110.56 0 0 0-72 31.2c-39.52 36.64-53.2 91.84-46.88 104.64z m-75.12 668.16h-288a63.52 63.52 0 0 1-63.36-63.36v-216H512.8z" fill="#BDC9D7" p-id="9789"></path></svg>