<?xml version="1.0" standalone="no"?><!DOCTYPE svg PUBLIC "-//W3C//DTD SVG 1.1//EN" "http://www.w3.org/Graphics/SVG/1.1/DTD/svg11.dtd"><svg t="1598587293442" class="icon" viewBox="0 0 1024 1024" version="1.1" xmlns="http://www.w3.org/2000/svg" p-id="11049" xmlns:xlink="http://www.w3.org/1999/xlink" width="128" height="128"><defs><style type="text/css"></style></defs><path d="M180.32 960.88a4.96 4.96 0 0 1-5.04 5.04H112a4.96 4.96 0 0 1-5.04-5.04V138.32A19.52 19.52 0 0 1 112 128h57.76a4.96 4.96 0 0 1 5.04 5.04v827.84h5.04zM704 515.44l-104-57.76 193.68-330.32H248.64a34 34 0 0 0-32 32v796.4a13.68 13.68 0 0 0 16 16h566.08a72 72 0 0 0 73.28-74.16V232L704 515.44zM578.56 614.96l16-141.28 104.64 57.76z" fill="#BDC9D7" p-id="11050"></path></svg>