<?xml version="1.0" standalone="no"?><!DOCTYPE svg PUBLIC "-//W3C//DTD SVG 1.1//EN" "http://www.w3.org/Graphics/SVG/1.1/DTD/svg11.dtd"><svg t="1598586324484" class="icon" viewBox="0 0 1024 1024" version="1.1" xmlns="http://www.w3.org/2000/svg" p-id="8523" xmlns:xlink="http://www.w3.org/1999/xlink" width="128" height="128"><defs><style type="text/css"></style></defs><path d="M702 334.64C702 437.12 603.2 576 500.72 576c-98.88 0-201.36-138.88-201.36-241.36 0-157.36 43.92-245.2 201.28-245.2 161.12 3.68 201.36 87.84 201.36 245.2z m-54.88 520H138.4a25.04 25.04 0 0 1-25.6-24V733.68A210.32 210.32 0 0 1 168 649.52c10.96-10.96 25.6-21.92 43.92-36.64l54.88-43.92c10.96-7.28 18.32-14.64 25.6-18.32a22.16 22.16 0 0 1 29.28 0l186.64 120.8L643.44 584a71.44 71.44 0 0 1 3.68 25.6c0 21.92-10.96 21.92-29.28 32.96a54.24 54.24 0 0 0-36.64 47.6v58.56A44.4 44.4 0 0 0 606.88 792c32.96 18.32 47.6 25.6 47.6 51.2-7.28 0-7.28 7.2-7.28 10.96z" fill="#BDC9D7" p-id="8524"></path><path d="M961.84 675.04a31.52 31.52 0 0 1 29.28 28.96v36.64a26.08 26.08 0 0 1-22.72 29.12h-2.88a45.36 45.36 0 0 0-43.92 46.8v0.8a32.96 32.96 0 0 0 3.68 18.32 33.28 33.28 0 0 1-10.96 40l-32.96 18.32h-10.96a27.6 27.6 0 0 1-25.6-14.64 56 56 0 0 0-40-21.92 45.92 45.92 0 0 0-40 21.92 37.04 37.04 0 0 1-25.6 14.64c-7.28 0-10.96 0-14.64-3.68L691.6 872a29.44 29.44 0 0 1-10.96-40 52.08 52.08 0 0 0 7.28-21.92 45.36 45.36 0 0 0-43.12-47.6h-0.8a28.32 28.32 0 0 1-25.6-29.28v-36.16a26.08 26.08 0 0 1 22.72-29.12h2.88a48.48 48.48 0 0 0 47.6-47.6 52 52 0 0 0-7.28-22 33.28 33.28 0 0 1 10.96-40l14.64-7.28 14.64-7.28a22 22 0 0 1 14.64-3.68 32 32 0 0 1 25.6 14.64 56 56 0 0 0 40 21.92 45.92 45.92 0 0 0 40-21.92 30.8 30.8 0 0 1 25.6-14.64 22 22 0 0 1 14.64 3.68l14.64 7.28 14.64 7.28a29.44 29.44 0 0 1 10.96 40 50.72 50.72 0 0 0 36.64 76.88z m-150.08 120.72a76.88 76.88 0 1 0-76.88-76.88 75.04 75.04 0 0 0 73.12 76.88z" fill="#BDC9D7" p-id="8525"></path></svg>