<?xml version="1.0" standalone="no"?><!DOCTYPE svg PUBLIC "-//W3C//DTD SVG 1.1//EN" "http://www.w3.org/Graphics/SVG/1.1/DTD/svg11.dtd"><svg t="1598586620261" class="icon" viewBox="0 0 1024 1024" version="1.1" xmlns="http://www.w3.org/2000/svg" p-id="9366" xmlns:xlink="http://www.w3.org/1999/xlink" width="128" height="128"><defs><style type="text/css"></style></defs><path d="M890.48 160.64h-360v-40c0-19.44-13.6-35.44-30.24-35.44s-30.24 16-30.24 35.44v40h-360a32 32 0 0 0-32.56 30.24 32 32 0 0 0 32.56 30.24h42.8v536.8a66.56 66.56 0 0 0 66.16 67.04h206.16l-50.4 50.4a32 32 0 1 0 44.96 44.64l80.64-80 80.64 80a32 32 0 1 0 44.96-44.96l-50.4-50.4h205.76a66.56 66.56 0 0 0 66.16-67.04V221.12h42.96a32 32 0 0 0 32.72-30.24 32 32 0 0 0-32.64-30.24zM524.16 338.48A32 32 0 0 1 558.24 368a32 32 0 0 1-34 29.52H273.76A32 32 0 0 1 240 368a32 32 0 0 1 34-29.52zM274.24 471.2h380c18.88 0 34.24 13.28 34.24 29.52s-15.44 29.52-34.32 29.52H274.24c-18.88 0-34.32-13.2-34.32-29.52s15.44-29.52 34.32-29.52zM725.92 648H274.8C256 648 240 634.8 240 618.56s16-29.52 34.8-29.52h451.2c19.04 0 34.72 13.44 34.72 29.52S745.12 648 725.92 648z" fill="#BDC9D7" p-id="9367"></path></svg>