<?xml version="1.0" standalone="no"?><!DOCTYPE svg PUBLIC "-//W3C//DTD SVG 1.1//EN" "http://www.w3.org/Graphics/SVG/1.1/DTD/svg11.dtd"><svg t="1598587031629" class="icon" viewBox="0 0 1024 1024" version="1.1" xmlns="http://www.w3.org/2000/svg" p-id="10348" xmlns:xlink="http://www.w3.org/1999/xlink" width="128" height="128"><defs><style type="text/css"></style></defs><path d="M918 296.72V182a28 28 0 0 0-28-28h-47.28v170.88h47.28a28 28 0 0 0 28-28.16z m-23.12 241.12V419.04a26.08 26.08 0 0 0-26-26h-26.24v170.8h26.24a26 26 0 0 0 26-26z m22.24 100.4h-74.4v176.48h74.08a26.88 26.88 0 0 0 27.2-27.04V665.12a27.12 27.12 0 0 0-26.88-26.96zM158.16 165.36v656a83.92 83.92 0 0 0 83.92 83.92H816V102.64H222.16a88.8 88.8 0 0 0-64 62.72z m243.76 148.56A17.76 17.76 0 0 1 419.68 296h264a17.76 17.76 0 0 1 17.76 17.76v27.36a17.76 17.76 0 0 1-17.76 17.76h-264a17.76 17.76 0 0 1-17.76-17.76z m0 168.56a15.52 15.52 0 0 1 15.52-15.52h268.64a15.52 15.52 0 0 1 15.52 15.52v32a15.52 15.52 0 0 1-15.52 15.52H417.44a15.52 15.52 0 0 1-15.52-15.52z m0 176.48a15.36 15.36 0 0 1 15.36-15.36h268.96a15.36 15.36 0 0 1 15.36 15.36v32a15.36 15.36 0 0 1-15.36 15.36H417.28a15.36 15.36 0 0 1-15.36-15.36zM307.04 290.4a37.2 37.2 0 0 1-1.04 74.4 38.8 38.8 0 0 1-36.64-37.68 38 38 0 0 1 37.68-36.72z m0 173.52a37.2 37.2 0 0 1-1.04 74.4 38.8 38.8 0 0 1-36.64-37.68A38 38 0 0 1 307.04 464z m0 173.52a37.2 37.2 0 0 1-1.04 74.4 38.8 38.8 0 0 1-36.64-37.68 38 38 0 0 1 37.68-36.64z" fill="#BDC9D7" p-id="10349"></path></svg>