<?xml version="1.0" standalone="no"?><!DOCTYPE svg PUBLIC "-//W3C//DTD SVG 1.1//EN" "http://www.w3.org/Graphics/SVG/1.1/DTD/svg11.dtd"><svg t="1598586160792" class="icon" viewBox="0 0 1024 1024" version="1.1" xmlns="http://www.w3.org/2000/svg" p-id="7823" xmlns:xlink="http://www.w3.org/1999/xlink" width="128" height="128"><defs><style type="text/css"></style></defs><path d="M295.04 688H153.6a46.8 46.8 0 0 0-46.8 46.8v141.36a46.8 46.8 0 0 0 46.8 46.8h141.44a46.8 46.8 0 0 0 46.8-46.8V735.12A46.8 46.8 0 0 0 295.04 688z m587.6 0H741.2a46.8 46.8 0 0 0-46.8 46.8v141.36a46.8 46.8 0 0 0 46.8 46.8h141.36a46.8 46.8 0 0 0 46.8-46.8V735.12a46.8 46.8 0 0 0-46.8-47.12zM588.8 688H447.44a46.8 46.8 0 0 0-46.8 46.8v141.36a46.8 46.8 0 0 0 46.8 46.8H588.8a46.8 46.8 0 0 0 46.8-46.8V735.12A46.8 46.8 0 0 0 588.8 688zM409.36 453.28h217.6a67.44 67.44 0 0 0 67.44-67.44V168a67.44 67.44 0 0 0-67.44-67.44h-217.6A67.44 67.44 0 0 0 341.84 168v217.6a67.44 67.44 0 0 0 67.52 67.68zM756.24 512H547.52v-29.36h-58.8V512H280c-48 0-85.04 32-85.04 72v74.8h58.72V584c0-4.72 9.92-13.28 26.24-13.28h208.8v88h58.72v-88h208.8c16 0 26.24 8.64 26.24 13.28v74.8h58.72V584c0.08-40-37.28-72-84.96-72z" fill="#BDC9D7" p-id="7824"></path></svg>