<?xml version="1.0" standalone="no"?><!DOCTYPE svg PUBLIC "-//W3C//DTD SVG 1.1//EN" "http://www.w3.org/Graphics/SVG/1.1/DTD/svg11.dtd"><svg t="1598586491961" class="icon" viewBox="0 0 1024 1024" version="1.1" xmlns="http://www.w3.org/2000/svg" p-id="8944" xmlns:xlink="http://www.w3.org/1999/xlink" width="128" height="128"><defs><style type="text/css"></style></defs><path d="M805.44 120.72H218.56A58.88 58.88 0 0 0 160 179.44v665.2a58.88 58.88 0 0 0 58.72 58.72h586.96a58.88 58.88 0 0 0 58.72-58.72V179.44a58.8 58.8 0 0 0-58.96-58.72z m-391.28 73.36h195.6a29.36 29.36 0 0 1 0 58.8H414.16a29.36 29.36 0 0 1 0-58.8z m206.48 251.6v19.2c0 61.28-47.52 120.48-108.64 120.48s-108.64-59.2-108.64-120.48v-19.2c0-61.28 47.52-104.8 108.64-104.8s108.64 43.6 108.64 104.8z m108.56 336c0 34.96-14.16 48-54.32 48H349.04c-40 0-54.32-13.92-54.32-48v-31.2A118 118 0 0 1 296 736v-1.2c0.64-4.4 1.6-36 3.04-40.64a79.44 79.44 0 0 1 14.8-26.88c11.76-14.4 30.32-27.84 58.24-43.44a64 64 0 0 1 31.36-11.04c14.96 0 28 10.32 50.08 28.24l20 16c0.72 0.64 22.32 27.68 38.48 27.68s37.76-27.04 38.48-27.68l20.08-16c22-17.92 35.12-28.24 50.08-28.24 9.36 0 16 3.44 31.36 11.04a168 168 0 0 1 58.24 43.52 78 78 0 0 1 14.88 27.04c1.36 4.32 2.32 36 2.96 40.48A5.12 5.12 0 0 1 728 736a116.16 116.16 0 0 1 0.96 14.8v30.96z" fill="#BDC9D7" p-id="8945"></path></svg>