<?xml version="1.0" standalone="no"?><!DOCTYPE svg PUBLIC "-//W3C//DTD SVG 1.1//EN" "http://www.w3.org/Graphics/SVG/1.1/DTD/svg11.dtd"><svg t="1598587324801" class="icon" viewBox="0 0 1024 1024" version="1.1" xmlns="http://www.w3.org/2000/svg" p-id="11189" xmlns:xlink="http://www.w3.org/1999/xlink" width="128" height="128"><defs><style type="text/css"></style></defs><path d="M537.36 102.64A414.8 414.8 0 1 0 952 517.44a414.8 414.8 0 0 0-414.64-414.8z m64 609.36s-58.48 58.64-108.08 82.56c0 0-70.72 27.84-66.56-31.04 0 0 16.64-154.72 43.2-201.76s-45.36-14.96-45.36-14.96-63.52 12.24-37.52-9.12c0 0 88.56-67.52 140.08-78.88 18.08-4.16 54.72-12.08 50.08 35.28 0 0-2.8 47.28-32.48 113.2 0 0-38.96 134.96 27.84 100.4-0.08-0.08 80.4-42.96 28.64 4.32z m-34.4-304a67.68 67.68 0 1 1 67.68-67.68A67.68 67.68 0 0 1 566.96 408z" fill="#BDC9D7" p-id="11190"></path></svg>