<?xml version="1.0" standalone="no"?><!DOCTYPE svg PUBLIC "-//W3C//DTD SVG 1.1//EN" "http://www.w3.org/Graphics/SVG/1.1/DTD/svg11.dtd"><svg t="1598586901279" class="icon" viewBox="0 0 1024 1024" version="1.1" xmlns="http://www.w3.org/2000/svg" p-id="9928" xmlns:xlink="http://www.w3.org/1999/xlink" width="128" height="128"><defs><style type="text/css"></style></defs><path d="M267.68 70.64h523.84a87.28 87.28 0 0 1 87.28 87.28v654.8a87.28 87.28 0 0 1-87.28 87.28H267.68a87.28 87.28 0 0 1-87.28-87.28V157.92A87.28 87.28 0 0 1 267.68 70.64z m61.44 171.2l-4.8-7.52a35.04 35.04 0 0 0-4.56-5.92 16 16 0 0 0-12.24-4.96 17.76 17.76 0 0 0-9.84 2.96 16.72 16.72 0 0 0-6.56 7.6 33.52 33.52 0 0 0-1.6 11.68v116.96a19.36 19.36 0 0 0 3.92 13.36 14.32 14.32 0 0 0 20.8 0 18.96 18.96 0 0 0 4-13.12V273.84l57.6 88c1.6 2.4 3.28 4.8 4.96 7.12a37.2 37.2 0 0 0 5.36 6.08 18.88 18.88 0 0 0 13.68 4.96Q416 380.24 416 360V241.04a19.68 19.68 0 0 0-3.84-13.2 13.12 13.12 0 0 0-10.48-4.4 12.72 12.72 0 0 0-10.16 4.4 19.92 19.92 0 0 0-3.76 13.2V331.2l-58.72-89.36z m220.88 8a16 16 0 0 0 10.88-3.28 12.08 12.08 0 0 0 0-17.12 16 16 0 0 0-10.88-3.28H468.88a25.92 25.92 0 0 0-10.72 1.92 12.24 12.24 0 0 0-6.16 6.08 25.6 25.6 0 0 0-2 10.8v113.84a16 16 0 0 0 18.8 18.8H552a16 16 0 0 0 10.88-3.36 11.28 11.28 0 0 0 3.68-8.72 11.52 11.52 0 0 0-3.68-8.96 16 16 0 0 0-10.88-3.36h-71.28v-43.12h64a14.8 14.8 0 0 0 10.56-3.28 11.12 11.12 0 0 0 3.44-8.4 10.72 10.72 0 0 0-3.44-8 15.12 15.12 0 0 0-10.56-3.2h-64v-37.52h69.2z m148.72 104c2 7.12 3.52 12.08 4.64 15.04a19.04 19.04 0 0 0 5.92 8 17.2 17.2 0 0 0 11.28 3.52 16.8 16.8 0 0 0 11.52-3.6 20.16 20.16 0 0 0 5.76-8.8q1.68-4.8 4.24-15.2l25.28-102.08a64 64 0 0 0 2.24-13.52 13.2 13.2 0 0 0-4.16-10 14.24 14.24 0 0 0-10.16-4 12.56 12.56 0 0 0-9.2 3.12 17.44 17.44 0 0 0-4.4 7.04 106.56 106.56 0 0 0-2.72 10.88l-19.92 88.72-22.4-82.88q-1.92-7.44-4.48-14.72a20.64 20.64 0 0 0-5.92-8 17.68 17.68 0 0 0-12.08-3.76 18.64 18.64 0 0 0-12.08 3.6 20.88 20.88 0 0 0-6.4 8.56 134.56 134.56 0 0 0-4.48 14.48l-22.24 82.72-19.84-88.56a61.04 61.04 0 0 0-5.12-16 11.6 11.6 0 0 0-11.28-5.36 14.08 14.08 0 0 0-10.24 4 13.28 13.28 0 0 0-4.16 9.92 60.08 60.08 0 0 0 2.24 13.52l25.28 102.08c0.72 3.04 1.6 6.32 2.56 9.92a38.08 38.08 0 0 0 3.68 9.2 16.56 16.56 0 0 0 5.92 6 18.56 18.56 0 0 0 9.36 2.08 16.96 16.96 0 0 0 11.28-3.6 19.68 19.68 0 0 0 5.92-8c1.12-2.96 2.72-8 4.64-14.88l24.8-90.88zM311.28 507.12a21.84 21.84 0 1 0 0 43.68h305.6a21.84 21.84 0 0 0 0-43.68z m0 109.12a21.84 21.84 0 1 0 0 43.68h436.56a21.84 21.84 0 0 0 0-43.68z m0 109.12a21.84 21.84 0 0 0 0 43.68h436.56a21.84 21.84 0 0 0 0-43.68z" fill="#BDC9D7" p-id="9929"></path></svg>