<?xml version="1.0" standalone="no"?><!DOCTYPE svg PUBLIC "-//W3C//DTD SVG 1.1//EN" "http://www.w3.org/Graphics/SVG/1.1/DTD/svg11.dtd"><svg t="1598585974010" class="icon" viewBox="0 0 1024 1024" version="1.1" xmlns="http://www.w3.org/2000/svg" p-id="7259" xmlns:xlink="http://www.w3.org/1999/xlink" width="128" height="128"><defs><style type="text/css"></style></defs><path d="M551.28 794.08l39.52-49.28a178.96 178.96 0 0 1 272-232.8V82.48A58.72 58.72 0 0 0 804.08 24H170.56A58.72 58.72 0 0 0 112 82.48v760.48a58.72 58.72 0 0 0 58.56 58.56h281.12a146.96 146.96 0 0 1 99.6-107.44z m-277.76-632h429.04a39.04 39.04 0 1 1 0 78.08H273.52a39.04 39.04 0 1 1 0-78.08z m0 175.2h429.04a39.04 39.04 0 1 1 0 78.08H273.52a39.04 39.04 0 1 1 0-78.08z m-39.04 214.24a39.2 39.2 0 0 1 39.04-39.04h185.52a39.04 39.04 0 0 1 0 78.08H273.52a38.88 38.88 0 0 1-39.04-39.04z" fill="#BDC9D7" p-id="7260"></path><path d="M863.12 1000H593.68a67.36 67.36 0 0 1 0-134.72L704.48 728a101.52 101.52 0 1 1 48.8 0L864 865.36a67.36 67.36 0 1 1-0.96 134.72z" fill="#BDC9D7" p-id="7261"></path></svg>