<?xml version="1.0" standalone="no"?><!DOCTYPE svg PUBLIC "-//W3C//DTD SVG 1.1//EN" "http://www.w3.org/Graphics/SVG/1.1/DTD/svg11.dtd"><svg t="1598585828111" class="icon" viewBox="0 0 1024 1024" version="1.1" xmlns="http://www.w3.org/2000/svg" p-id="6406" xmlns:xlink="http://www.w3.org/1999/xlink" width="128" height="128"><defs><style type="text/css"></style></defs><path d="M482 560.56a29.12 29.12 0 1 0 29.12-29.76 29.44 29.44 0 0 0-29.12 29.76zM677.76 744h132.64v-33.04H677.76zM497.12 379.36v66.32h27.92v-66.32z m0-40v0.48a93.6 93.6 0 0 0 15.12 1.28 100.8 100.8 0 0 0 12.8-0.88v-0.8zM511.04 208a40.56 40.56 0 1 0 40 40.56 40 40 0 0 0-40-40.56z m-90.72 40a91.92 91.92 0 1 1 104.56 92.4v39.04h318.56a66.32 66.32 0 0 0 66.32-66.32V180.48a66.32 66.32 0 0 0-66.32-66.32H180.48a66.24 66.24 0 0 0-66.32 66.32v132.64a66.32 66.32 0 0 0 66.32 66.32h316.64V340a93.36 93.36 0 0 1-76.88-92.48z m76.8 210.32v-12.64H180.48a65.52 65.52 0 0 1-66.32-66.32v464a66.32 66.32 0 0 0 66.32 66.32h663.12a66.32 66.32 0 0 0 66.32-66.32v-464c0 44.24-29.68 66.32-66.32 66.32H524.96v12.16z m148 219.28h198v166.32H645.12zM579.36 560A67.44 67.44 0 1 1 512 491.28 68.08 68.08 0 0 1 579.36 560z m98.4 250.32h132.64v-33.12H677.76z" fill="#BDC9D7" p-id="6407"></path></svg>