<?xml version="1.0" standalone="no"?><!DOCTYPE svg PUBLIC "-//W3C//DTD SVG 1.1//EN" "http://www.w3.org/Graphics/SVG/1.1/DTD/svg11.dtd"><svg t="1598585926728" class="icon" viewBox="0 0 1024 1024" version="1.1" xmlns="http://www.w3.org/2000/svg" p-id="6689" xmlns:xlink="http://www.w3.org/1999/xlink" width="128" height="128"><defs><style type="text/css"></style></defs><path d="M845.12 88H345.44v208h-208v582.8a41.68 41.68 0 0 0 41.44 41.2h666.24a41.68 41.68 0 0 0 41.68-41.68V129.44a41.6 41.6 0 0 0-41.6-41.44z m-208 513.36a27.76 27.76 0 0 1 0 55.52H539.76v69.44a27.76 27.76 0 0 1-55.52 0v-69.68H387.12a27.76 27.76 0 0 1 0-55.52h97.12v-55.6H387.12a27.76 27.76 0 1 1 0-55.6h85.6L381.36 398.48a27.76 27.76 0 0 1 39.28-39.28L512 450.64l91.52-91.52a27.76 27.76 0 0 1 39.28 39.28L551.28 490h85.68a27.76 27.76 0 0 1 0 55.6H539.76v55.6h97.2z" fill="#BDC9D7" p-id="6690"></path><path d="M317.68 268.16V91.68a41.6 41.6 0 0 0-12.24 8.64L149.2 259.44a41.52 41.52 0 0 0-6.56 8.72h175.04z" fill="#BDC9D7" p-id="6691"></path></svg>